<?xml version="1.0" encoding="UTF-8" standalone="no"?>
<svg
   xmlns:dc="http://purl.org/dc/elements/1.1/"
   xmlns:cc="http://creativecommons.org/ns#"
   xmlns:rdf="http://www.w3.org/1999/02/22-rdf-syntax-ns#"
   xmlns:svg="http://www.w3.org/2000/svg"
   xmlns="http://www.w3.org/2000/svg"
   xmlns:sodipodi="http://sodipodi.sourceforge.net/DTD/sodipodi-0.dtd"
   xmlns:inkscape="http://www.inkscape.org/namespaces/inkscape"
   version="1.0"
   width="474.000000pt"
   height="355.000000pt"
   viewBox="0 0 474.000000 355.000000"
   preserveAspectRatio="xMidYMid meet"
   id="svg32"
   sodipodi:docname="pika.svg"
   inkscape:version="0.92.4 (5da689c313, 2019-01-14)">
  <metadata
     id="metadata38">
    <rdf:RDF>
      <cc:Work
         rdf:about="">
        <dc:format>image/svg+xml</dc:format>
        <dc:type
           rdf:resource="http://purl.org/dc/dcmitype/StillImage" />
      </cc:Work>
    </rdf:RDF>
  </metadata>
  <defs
     id="defs36" />
  <sodipodi:namedview
     pagecolor="#ffffff"
     bordercolor="#666666"
     borderopacity="1"
     objecttolerance="10"
     gridtolerance="10"
     guidetolerance="10"
     inkscape:pageopacity="0"
     inkscape:pageshadow="2"
     inkscape:window-width="838"
     inkscape:window-height="480"
     id="namedview34"
     showgrid="false"
     inkscape:zoom="0.49859155"
     inkscape:cx="316"
     inkscape:cy="236.66667"
     inkscape:window-x="0"
     inkscape:window-y="0"
     inkscape:window-maximized="0"
     inkscape:current-layer="svg32" />
  <g
     transform="matrix(0.1482072,0,0,-0.1482072,-112.57328,439.77306)"
     id="g30"
     style="fill:#ffc400;fill-opacity:1;stroke:none">
    <path
       d="m 1752,2813 c -91,-18 -67,-304 42,-488 16,-27 29,-54 29,-60 0,-5 -16,-36 -36,-68 -46,-75 -74,-158 -88,-264 -11,-74 -10,-86 4,-100 23,-23 47,-1 47,43 0,49 26,163 50,219 12,28 39,78 61,112 l 41,62 -39,54 c -22,30 -50,87 -63,126 l -24,71 59,60 c 72,73 89,79 122,48 30,-27 87,-114 107,-162 8,-18 19,-37 25,-40 6,-4 46,5 89,20 59,20 103,28 190,32 89,4 115,8 119,20 4,8 -2,21 -13,29 -34,26 -244,6 -336,-32 -13,-5 -22,3 -38,37 -42,82 -129,188 -186,224 -45,29 -132,68 -138,63 0,-1 -11,-4 -24,-6 z"
       id="path2"
       style="fill:#ffc400;fill-opacity:1"
       inkscape:connector-curvature="0" />
    <path
       d="m 3009,2696 c -82,-29 -271,-146 -318,-197 -18,-20 -20,-20 -68,-3 -54,19 -86,14 -81,-12 3,-19 10,-23 95,-60 52,-22 65,-24 78,-14 9,7 14,19 11,26 -6,16 52,64 146,123 51,32 73,41 90,36 34,-11 56,-34 63,-66 4,-16 11,-31 16,-34 5,-4 -9,-33 -31,-65 -41,-61 -96,-110 -121,-110 -18,0 -39,-20 -39,-37 0,-7 16,-34 36,-59 47,-62 73,-115 99,-199 17,-56 26,-71 43,-73 14,-2 25,3 29,14 9,25 -41,171 -82,234 -19,30 -35,60 -35,65 0,6 12,18 28,29 61,42 139,159 168,255 21,69 18,108 -11,136 -27,28 -61,31 -116,11 z"
       id="path4"
       style="fill:#ffc400;fill-opacity:1"
       inkscape:connector-curvature="0" />
    <path
       d="m 1363,2350 c -45,-18 -55,-72 -22,-114 32,-41 89,-34 114,15 31,58 -30,123 -92,99 z m 61,-36 c 9,-8 16,-22 16,-29 0,-7 -7,-21 -16,-29 -30,-30 -74,-13 -74,29 0,42 44,59 74,29 z"
       id="path6"
       style="fill:#ffc400;fill-opacity:1"
       inkscape:connector-curvature="0" />
    <path
       d="m 2043,2068 c -61,-29 -24,-121 41,-104 49,12 53,81 6,106 -22,12 -19,12 -47,-2 z"
       id="path8"
       style="fill:#ffc400;fill-opacity:1"
       inkscape:connector-curvature="0" />
    <path
       d="m 2668,2073 c -9,-2 -21,-17 -28,-33 -15,-36 0,-67 37,-76 21,-6 31,-1 50,20 29,34 29,41 -2,71 -24,25 -27,26 -57,18 z"
       id="path10"
       style="fill:#ffc400;fill-opacity:1"
       inkscape:connector-curvature="0" />
    <path
       d="m 2270,1961 c 0,-37 44,-75 75,-66 24,8 32,8 67,-1 34,-8 81,34 76,68 -5,33 -22,32 -35,-2 -12,-31 -39,-40 -61,-18 -9,9 -17,9 -36,-1 -28,-15 -44,-9 -56,25 -13,33 -30,30 -30,-5 z"
       id="path12"
       style="fill:#ffc400;fill-opacity:1"
       inkscape:connector-curvature="0" />
    <path
       d="m 3017,1874 c -4,-4 -7,-18 -7,-31 0,-15 -6,-23 -17,-24 -46,-2 -79,-11 -89,-24 -15,-19 -58,-19 -74,0 -10,12 -42,15 -166,15 -145,0 -155,1 -201,26 -58,31 -127,29 -173,-5 -26,-19 -42,-21 -160,-21 -107,0 -132,-3 -136,-15 -8,-19 -38,-19 -54,0 -16,19 -269,22 -288,3 -31,-31 0,-224 55,-336 44,-89 112,-168 136,-159 24,9 21,30 -7,64 -73,88 -122,204 -133,315 l -6,68 h 40 40 l 1,-57 c 2,-155 108,-337 259,-446 54,-39 188,-107 211,-107 9,0 10,-5 2,-19 -8,-15 -6,-24 7,-37 15,-14 33,-16 142,-11 145,6 213,22 329,77 64,31 82,44 82,60 0,16 4,20 18,15 24,-7 75,32 67,52 -3,10 -1,13 9,10 40,-16 154,155 189,284 34,122 32,227 -4,236 -11,3 -19,16 -21,37 -2,22 -9,32 -23,34 -12,2 -24,0 -28,-4 z m -579,-87 c 70,-34 66,-157 -5,-185 -56,-22 -83,-19 -122,14 -70,59 -44,157 49,187 18,6 46,0 78,-16 z"
       id="path14"
       style="fill:#ffc400;fill-opacity:1"
       inkscape:connector-curvature="0" />
    <path
       d="m 2345,1734 c -19,-20 -16,-63 6,-77 26,-16 68,0 75,29 12,48 -46,83 -81,48 z"
       id="path16"
       style="fill:#ffc400;fill-opacity:1"
       inkscape:connector-curvature="0" />
    <path
       d="m 1887,1283 c -31,-30 56,-101 188,-154 84,-33 109,-34 113,-3 3,18 -8,25 -72,48 -41,15 -104,47 -140,72 -68,45 -78,49 -89,37 z"
       id="path18"
       style="fill:#ffc400;fill-opacity:1"
       inkscape:connector-curvature="0" />
    <path
       d="m 1232,811 c -8,-5 -12,-17 -10,-27 3,-18 20,-19 360,-22 322,-2 356,-1 362,14 16,42 1,44 -358,44 -187,0 -347,-4 -354,-9 z"
       id="path20"
       style="fill:#ffc400;fill-opacity:1"
       inkscape:connector-curvature="0" />
    <path
       d="m 1982,803 c -19,-37 -4,-43 98,-43 77,0 99,3 104,15 12,31 -22,45 -109,45 -70,0 -86,-3 -93,-17 z"
       id="path22"
       style="fill:#ffc400;fill-opacity:1"
       inkscape:connector-curvature="0" />
    <path
       d="m 2232,803 c -21,-42 -13,-43 278,-43 235,0 279,2 284,15 3,8 -2,21 -10,30 -13,13 -56,15 -279,15 -242,0 -265,-2 -273,-17 z"
       id="path24"
       style="fill:#ffc400;fill-opacity:1"
       inkscape:connector-curvature="0" />
    <path
       d="m 2846,807 c -27,-20 -10,-47 30,-47 41,0 57,26 29,46 -23,17 -36,18 -59,1 z"
       id="path26"
       style="fill:#ffc400;fill-opacity:1"
       inkscape:connector-curvature="0" />
    <path
       d="m 2972,811 c -8,-5 -12,-17 -10,-27 3,-18 17,-19 278,-19 261,0 275,1 278,19 2,10 -2,22 -10,27 -17,11 -519,11 -536,0 z"
       id="path28"
       style="fill:#ffc400;fill-opacity:1"
       inkscape:connector-curvature="0" />
  </g>
</svg>
